<svg width="19" height="15" viewBox="0 0 19 15" fill="none" xmlns="http://www.w3.org/2000/svg">
<path d="M3.02344 11.7846C3.02344 12.2393 3.21074 12.6753 3.54414 12.9968C3.87753 13.3183 4.32972 13.4989 4.80122 13.4989C5.27271 13.4989 5.7249 13.3183 6.05829 12.9968C6.39169 12.6753 6.57899 12.2393 6.57899 11.7846C6.57899 11.33 6.39169 10.8939 6.05829 10.5724C5.7249 10.2509 5.27271 10.0703 4.80122 10.0703C4.32972 10.0703 3.87753 10.2509 3.54414 10.5724C3.21074 10.8939 3.02344 11.33 3.02344 11.7846ZM11.9123 11.7846C11.9123 12.2393 12.0996 12.6753 12.433 12.9968C12.7664 13.3183 13.2186 13.4989 13.6901 13.4989C14.1616 13.4989 14.6138 13.3183 14.9472 12.9968C15.2806 12.6753 15.4679 12.2393 15.4679 11.7846C15.4679 11.33 15.2806 10.8939 14.9472 10.5724C14.6138 10.2509 14.1616 10.0703 13.6901 10.0703C13.2186 10.0703 12.7664 10.2509 12.433 10.5724C12.0996 10.8939 11.9123 11.33 11.9123 11.7846Z" stroke="white" stroke-width="2" stroke-linecap="round" stroke-linejoin="round"/>
<path d="M3.27778 11.7859H1.5V2.35716C1.5 2.12982 1.59365 1.9118 1.76035 1.75106C1.92705 1.59031 2.15314 1.5 2.38889 1.5H10.3889V11.7859M6.83333 11.7859H12.1667M15.7222 11.7859H17.5V6.64294M17.5 6.64294H10.3889M17.5 6.64294L14.8333 2.35716H10.3889" stroke="white" stroke-width="2" stroke-linecap="round" stroke-linejoin="round"/>
</svg>
